<?xml version="1.0" standalone="no"?>
<!DOCTYPE svg PUBLIC "-//W3C//DTD SVG 20010904//EN"
 "http://www.w3.org/TR/2001/REC-SVG-20010904/DTD/svg10.dtd">
<svg version="1.0" xmlns="http://www.w3.org/2000/svg"
 width="670.000000pt" height="373.000000pt" viewBox="0 0 670.000000 373.000000"
 preserveAspectRatio="xMidYMid meet">

<g transform="translate(0.000000,373.000000) scale(0.100000,-0.100000)"
fill="#000000" stroke="none">
<path d="M3205 3474 c-401 -62 -702 -209 -965 -473 -226 -227 -367 -481 -439
-791 -106 -452 2 -948 288 -1330 218 -292 494 -482 857 -590 148 -44 262 -60
436 -60 187 0 329 21 483 71 437 143 788 447 985 854 57 118 91 216 126 363
35 148 44 400 20 555 -76 481 -309 853 -707 1129 -161 112 -373 202 -572 243
-97 21 -159 27 -302 30 -99 2 -193 1 -210 -1z m-653 -982 l47 -2 3 -357 c3
-346 4 -359 25 -399 27 -51 80 -98 128 -114 20 -7 66 -10 101 -8 82 5 137 41
179 118 l30 55 3 357 3 357 122 -5 c67 -3 127 -10 133 -15 6 -5 17 -31 25 -57
30 -109 189 -442 211 -442 4 0 23 33 42 74 50 109 89 160 162 212 87 62 141
81 260 89 83 6 111 4 155 -10 109 -35 235 -126 283 -204 66 -108 88 -205 75
-334 -19 -183 -144 -347 -325 -425 -135 -58 -367 -34 -486 50 -9 7 -20 9 -24
5 -7 -6 -51 -200 -89 -390 -10 -48 -23 -94 -29 -102 -8 -10 -42 -15 -131 -16
-114 -3 -120 -2 -123 18 -2 11 15 101 37 199 21 99 47 215 56 259 9 44 23 102
31 129 24 85 19 116 -34 203 -27 43 -59 99 -72 126 -13 26 -27 47 -32 47 -4 0
-8 -30 -8 -67 0 -146 -45 -255 -145 -358 -108 -111 -252 -159 -414 -136 -175
24 -335 168 -394 356 -21 67 -22 83 -20 423 2 195 5 357 7 360 4 7 108 9 208
4z"/>
<path d="M3981 2100 c-93 -23 -167 -122 -196 -264 -25 -119 -23 -122 70 -170
69 -35 91 -41 156 -44 58 -3 84 0 110 13 59 31 99 67 127 114 22 38 27 58 27
116 0 58 -5 78 -27 115 -54 92 -170 144 -267 120z"/>
</g>
</svg>
